P3
12 12
255
0 0 0 0 0 0 0 0 0 0 0 0 0 0 0 0 0 0 0 0 0 0 0 0 0 0 0 0 0 0 0 0 0 0 0 0
0 0 0 0 0 0 0 0 0 0 0 0 120 120 120 120 120 120 0 0 0 0 0 0 0 0 0 0 0 0 0 0 0 0 0 0
0 0 0 0 0 0 0 0 0 0 0 0 120 120 120 120 120 120 0 0 0 0 0 0 0 0 0 0 0 0 0 0 0 0 0 0
0 0 0 0 0 0 0 0 0 120 120 120 120 120 120 120 120 120 120 120 120 0 0 0 0 0 0 0 0 0 0 0 0 0 0 0
0 0 0 0 0 0 120 120 120 255 255 255 255 255 255 200 200 200 200 200 200 120 120 120 0 0 0 0 0 0 0 0 0 0 0 0
0 0 0 120 120 120 255 255 255 255 255 255 200 200 200 200 200 200 200 200 200 200 200 200 120 120 120 0 0 0 0 0 0 0 0 0
0 0 0 120 120 120 200 200 200 200 200 200 200 200 200 200 200 200 200 200 200 200 200 200 120 120 120 0 0 0 0 0 0 0 0 0
0 0 0 120 120 120 200 200 200 200 200 200 200 200 200 200 200 200 200 200 200 200 200 200 120 120 120 0 0 0 0 0 0 0 0 0
0 0 0 0 0 0 120 120 120 200 200 200 200 200 200 200 200 200 200 200 200 120 120 120 0 0 0 0 0 0 0 0 0 0 0 0
0 0 0 0 0 0 0 0 0 120 120 120 120 120 120 120 120 120 120 120 120 0 0 0 0 0 0 0 0 0 0 0 0 0 0 0
0 0 0 0 0 0 0 0 0 0 0 0 120 120 120 120 120 120 0 0 0 0 0 0 0 0 0 0 0 0 0 0 0 0 0 0
0 0 0 0 0 0 0 0 0 0 0 0 0 0 0 0 0 0 0 0 0 0 0 0 0 0 0 0 0 0 0 0 0 0 0 0
